<?xml version="1.0" encoding="UTF-8"?>
<svg width="64px" height="64px" viewBox="0 0 64 64" version="1.1" xmlns="http://www.w3.org/2000/svg" xmlns:xlink="http://www.w3.org/1999/xlink">
    <!-- Generator: Sketch 50.2 (55047) - http://www.bohemiancoding.com/sketch -->
    <title>Settings</title>
    <desc>Created with Sketch.</desc>
    <defs></defs>
    <g id="Page-1" stroke="none" stroke-width="1" fill="none" fill-rule="evenodd" stroke-linecap="square">
        <g id="Desktop" transform="translate(-822.000000, -895.000000)" stroke="#F16534" stroke-width="2">
            <g id="about" transform="translate(-3.000000, -2.000000)">
                <g id="services" transform="translate(3.000000, 741.000000)">
                    <g id="Settings" transform="translate(823.000000, 157.000000)">
                        <circle id="Oval-31" cx="31" cy="31" r="12.8"></circle>
                        <path d="M59.15744,28.44 L59.15744,28.44 C47.0195467,28.44 46.0402985,19.5795415 52.7216,12.89824 L52.7216,12.89824 C53.72256,11.89728 53.72256,10.2768 52.7216,9.2784 C51.71552,8.27232 50.10016,8.28 49.0992,9.2784 L49.0992,9.2784 C40.5171368,17.861877 33.56,12.2891278 33.56,2.84 L33.56,2.84 C33.56,1.42432 32.41312,0.28 31,0.28 C29.57664,0.28 28.44,1.42688 28.44,2.84 L28.44,2.84 C28.44,14.9793072 19.5795415,15.9597015 12.89824,9.2784 L12.89824,9.2784 C11.89728,8.27744 10.2768,8.27744 9.2784,9.2784 C8.27232,10.28448 8.27744,11.89984 9.2784,12.89824 L9.2784,12.89824 C17.861877,21.481717 12.2891278,28.44 2.84,28.44 L2.84,28.44 C1.42432,28.44 0.28,29.58688 0.28,31 C0.28,32.42336 1.42688,33.56 2.84,33.56 L2.84,33.56 C14.9793072,33.56 15.9597015,42.418999 9.2784,49.0992 L9.2784,49.0992 C8.27744,50.10272 8.27744,51.7232 9.2784,52.7216 C10.28448,53.72768 11.89984,53.72 12.89824,52.7216 L12.89824,52.7216 C21.481717,44.138123 28.44,49.7094128 28.44,59.15744 L28.44,59.15744 C28.44,60.57312 29.58688,61.72 31,61.72 C32.42336,61.72 33.56,60.57312 33.56,59.15744 L33.56,59.15744 C33.56,47.0195467 42.418999,46.0402985 49.0992,52.7216 L49.0992,52.7216 C50.10272,53.72256 51.7232,53.72256 52.7216,52.7216 C53.72768,51.71552 53.72,50.10016 52.7216,49.0992 L52.7216,49.0992 C44.138123,40.5171368 49.7094128,33.56 59.15744,33.56 L59.15744,33.56 C60.57568,33.56 61.72,32.41312 61.72,31 C61.72,29.57664 60.57312,28.44 59.15744,28.44 Z" id="Page-1"></path>
                    </g>
                </g>
            </g>
        </g>
    </g>
</svg>