<svg width="243px" height="38px" viewBox="0 0 243 38" version="1.1" xmlns="http://www.w3.org/2000/svg" xmlns:xlink="http://www.w3.org/1999/xlink">
  <!-- Generator: Sketch 48.2 (47327) - http://www.bohemiancoding.com/sketch -->
  <desc>Created with Sketch.</desc>
  <defs>
    <polygon id="path-1" points="0.353003389 0.138902315 13.4457167 0.138902315 13.4457167 37.1840081 0.353003389 37.1840081 0.353003389 0.138902315"></polygon>
  </defs>
  <g id="Page-1" stroke="none" stroke-width="1" fill="none" fill-rule="evenodd">
    <g id="Desktop" transform="translate(-25.000000, -28.000000)">
      <g id="logo" transform="translate(25.000000, 28.000000)">
        <path d="M105.395511,10.9581198 C105.34327,10.9581198 105.293404,10.9677254 105.241954,10.9741291 L101.472684,10.9741291 L96.241456,10.9741291 C91.9078241,10.9741291 88.3950098,14.5265837 88.3950098,18.908318 L88.3950098,24.1985777 L88.3950098,29.4888374 C88.3950098,33.8705717 91.9078241,37.4238268 96.241456,37.4238268 L101.472684,37.4238268 L105.241954,37.4238268 C105.293404,37.42943 105.34327,37.4390356 105.395511,37.4390356 C106.117388,37.4390356 106.703121,36.846693 106.703121,36.1166707 L106.703121,33.4559319 C106.703121,32.7259096 106.117388,32.133567 105.395511,32.133567 L101.472684,32.133567 L96.241456,32.133567 C94.7969121,32.133567 93.6262378,30.9496823 93.6262378,29.4888374 L93.6262378,24.1985777 L93.6262378,18.908318 C93.6262378,17.4482735 94.7969121,16.2635883 96.241456,16.2635883 L101.472684,16.2635883 L105.395511,16.2635883 C106.117388,16.2635883 106.703121,15.6712457 106.703121,14.9412235 L106.703121,12.2804846 C106.703121,11.5504624 106.117388,10.9581198 105.395511,10.9581198" id="Fill-1" fill="#F16534"></path>
        <path d="M121.611368,10.9581198 C121.559127,10.9581198 121.509261,10.9677254 121.457811,10.9741291 L117.688541,10.9741291 C113.354909,10.9741291 109.842095,14.5265837 109.842095,18.908318 L109.842095,21.5538481 L109.842095,26.8433073 L109.842095,32.133567 L109.842095,36.1006615 C109.842095,36.8314842 110.427036,37.4238268 111.149704,37.4238268 L113.780753,37.4238268 C114.502629,37.4238268 115.088362,36.8314842 115.088362,36.1006615 C115.088362,36.0478309 115.078864,35.9974018 115.072531,35.9461721 L115.072531,32.133567 L115.072531,26.8433073 L115.072531,21.5538481 L115.072531,18.908318 C115.072531,17.4482735 116.243997,16.2635883 117.688541,16.2635883 L117.688541,16.2635883 L121.610577,16.2635883 L121.611368,16.2635883 C122.333245,16.2635883 122.918978,15.6712457 122.918978,14.9412235 L122.918978,12.2804846 C122.918978,11.5504624 122.333245,10.9581198 121.611368,10.9581198" id="Fill-3" fill="#F16534"></path>
        <path d="M37.1395818,32.133567 L31.9083537,32.133567 C30.4638098,32.133567 29.2931355,30.9496823 29.2931355,29.4888374 L29.2931355,28.1664726 C29.2931355,26.7056277 30.4638098,25.5209425 31.9083537,25.5209425 L37.1395818,25.5209425 L39.7548,25.5209425 L39.7548,29.4888374 C39.7548,30.9496823 38.5841257,32.133567 37.1395818,32.133567 M37.1395818,10.9741291 L31.9083537,10.9741291 L28.1390834,10.9741291 C28.0876339,10.9677254 28.0377674,10.9581198 27.9855264,10.9581198 C27.2628586,10.9581198 26.6779173,11.5504624 26.6779173,12.2804846 L26.6779173,14.9412235 C26.6779173,15.6712457 27.2628586,16.2635883 27.9855264,16.2635883 L31.9083537,16.2635883 L37.1395818,16.2635883 L37.1395818,16.2635883 C38.5841257,16.2635883 39.7548,17.4482735 39.7548,18.908318 L39.7548,20.2314832 L37.1395818,20.2314832 L31.9083537,20.2314832 C27.5755134,20.2314832 24.0619075,23.7839379 24.0619075,28.1664726 L24.0619075,29.4888374 C24.0619075,33.8705717 27.5755134,37.4238268 31.9083537,37.4238268 L37.1395818,37.4238268 C41.4732137,37.4238268 44.986028,33.8705717 44.986028,29.4888374 L44.986028,24.1985777 L44.986028,18.908318 C44.986028,14.5265837 41.4732137,10.9741291 37.1395818,10.9741291" id="Fill-5" fill="#F16534"></path>
        <g id="Group-9" transform="translate(0.000000, 0.239659)" fill="#F16534">
          <path d="M15.6928134,21.3140294 L15.6928134,26.6042891 L15.6928134,29.2490187 C15.6928134,30.7098636 14.5221391,31.8937483 13.0775951,31.8937483 L7.8463671,31.8937483 C6.40182313,31.8937483 5.23114886,30.7098636 5.23114886,29.2490187 L5.23114886,29.2490187 L5.23114886,26.6042891 L5.23114886,26.6042891 L5.23114886,21.3140294 L5.23114886,18.6692997 C5.23114886,17.2084548 6.40182313,16.0237696 7.8463671,16.0237696 L10.4615853,16.0237696 L15.6928134,16.0237696 L15.6928134,21.3140294 Z M19.6314713,0.154591389 L17.0004225,0.154591389 C16.2785463,0.154591389 15.6928134,0.746133519 15.6928134,1.4769562 L15.6928134,5.44405065 L15.6928134,10.7343104 L10.4615853,10.7343104 L7.8463671,10.7343104 C3.51273518,10.7343104 -7.91530945e-05,14.286765 -7.91530945e-05,18.6692997 L-7.91530945e-05,21.3140294 L-7.91530945e-05,26.6042891 L-7.91530945e-05,29.2490187 C-7.91530945e-05,33.6315534 3.51273518,37.1840081 7.8463671,37.1840081 L13.0775951,37.1840081 C17.4104355,37.1840081 20.9240414,33.6315534 20.9240414,29.2490187 L20.9240414,26.6042891 L20.9240414,21.3140294 L20.9240414,16.0237696 L20.9240414,10.7343104 L20.9240414,5.44405065 L20.9240414,1.63144556 C20.9295821,1.58021593 20.9390805,1.52978676 20.9390805,1.4769562 C20.9390805,0.746133519 20.3533476,0.154591389 19.6314713,0.154591389 L19.6314713,0.154591389 Z" id="Fill-7"></path>
        </g>
        <path d="M77.417742,32.133567 L72.186514,32.133567 C70.74197,32.133567 69.5712958,30.9496823 69.5712958,29.4888374 L69.5712958,28.1664726 C69.5712958,26.7056277 70.74197,25.5209425 72.186514,25.5209425 L77.417742,25.5209425 L80.0329603,25.5209425 L80.0329603,29.4888374 C80.0329603,30.9496823 78.862286,32.133567 77.417742,32.133567 M77.417742,10.9741291 L72.186514,10.9741291 L68.4172436,10.9741291 C68.3657941,10.9677254 68.3159277,10.9581198 68.2636866,10.9581198 C67.5410189,10.9581198 66.9560775,11.5504624 66.9560775,12.2804846 L66.9560775,14.9412235 C66.9560775,15.6712457 67.5410189,16.2635883 68.2636866,16.2635883 L72.186514,16.2635883 L77.417742,16.2635883 L77.417742,16.2635883 C78.862286,16.2635883 80.0329603,17.4482735 80.0329603,18.908318 L80.0329603,20.2314832 L77.417742,20.2314832 L72.186514,20.2314832 C67.8536736,20.2314832 64.3400678,23.7839379 64.3400678,28.1664726 L64.3400678,29.4888374 C64.3400678,33.8705717 67.8536736,37.4238268 72.186514,37.4238268 L77.417742,37.4238268 C81.7513739,37.4238268 85.2641883,33.8705717 85.2641883,29.4888374 L85.2641883,24.1985777 L85.2641883,18.908318 C85.2641883,14.5265837 81.7513739,10.9741291 77.417742,10.9741291" id="Fill-10" fill="#F16534"></path>
        <path d="M59.8941176,10.9581198 C59.8418765,10.9581198 59.7920101,10.9677254 59.7405606,10.9741291 L55.9712902,10.9741291 L53.3552805,10.9741291 L53.3552805,5.68386935 L53.3552805,1.71597444 C53.3552805,0.985952222 52.7703391,0.39360963 52.0476713,0.39360963 L49.4166225,0.39360963 C48.6947463,0.39360963 48.1090134,0.985952222 48.1090134,1.71597444 C48.1090134,1.76960546 48.1185117,1.82003463 48.124844,1.87126426 L48.124844,5.68386935 L48.124844,10.9741291 L48.124844,16.2635883 L48.124844,16.2635883 L48.124844,18.908318 L48.124844,24.1985777 L48.124844,29.4888374 C48.124844,33.8705717 51.6376583,37.4238268 55.9712902,37.4238268 L59.8941176,37.4238268 C60.6159938,37.4238268 61.2017267,36.8314842 61.2017267,36.1006615 L61.2017267,33.4407231 C61.2017267,32.7099004 60.6159938,32.1183582 59.8941176,32.1183582 C59.8418765,32.1183582 59.7920101,32.1271633 59.7413521,32.133567 L55.9712902,32.133567 C54.5267463,32.133567 53.3552805,30.9496823 53.3552805,29.4888374 L53.3552805,24.1985777 L53.3552805,18.908318 L53.3552805,16.2635883 L55.9712902,16.2635883 L59.8941176,16.2635883 C60.6159938,16.2635883 61.2017267,15.6712457 61.2017267,14.9412235 L61.2017267,12.2804846 C61.2017267,11.5504624 60.6159938,10.9581198 59.8941176,10.9581198" id="Fill-12" fill="#F16534"></path>
        <path d="M137.827225,10.9738089 L132.595997,10.9738089 L128.826727,10.9738089 C128.775278,10.9674052 128.725411,10.9577996 128.67317,10.9577996 C127.950502,10.9577996 127.365561,11.5501422 127.365561,12.2809649 L127.365561,14.9409033 C127.365561,15.671726 127.950502,16.2640686 128.67317,16.2640686 L132.595997,16.2640686 L137.827225,16.2640686 C139.271769,16.2640686 140.442444,17.4479533 140.442444,18.9087982 L140.442444,20.2311631 L137.827225,20.2311631 L132.595997,20.2311631 C128.263157,20.2311631 124.749551,23.7836177 124.749551,28.1661524 L124.749551,29.4885172 C124.749551,33.8710519 128.263157,37.4235066 132.595997,37.4235066 L137.827225,37.4235066 L137.827225,32.1332469 L132.595997,32.1332469 C131.151453,32.1332469 129.980779,30.9493621 129.980779,29.4885172 L129.980779,28.1661524 C129.980779,26.7053075 131.151453,25.5214228 132.595997,25.5214228 L137.827225,25.5214228 L140.442444,25.5214228 L140.442444,29.4885172 C140.442444,30.9493621 139.271769,32.1332469 137.827225,32.1332469 L137.827225,37.4235066 C142.160857,37.4235066 145.673672,33.8710519 145.673672,29.4885172 L145.673672,24.199058 L145.673672,18.9087982 C145.673672,14.5262635 142.160857,10.9738089 137.827225,10.9738089" id="Fill-14" fill="#F16534"></path>
        <path d="M213.660322,26.8436275 L213.660322,32.1338872 L213.660322,35.9456919 C213.65399,35.9977219 213.644492,36.0481511 213.644492,36.1009817 C213.644492,36.8318044 214.230225,37.4233465 214.952893,37.4233465 L217.58315,37.4233465 C218.305818,37.4233465 218.89155,36.8318044 218.89155,36.1009817 L218.89155,32.1338872 L218.89155,26.8436275 L218.89155,21.5533678 L213.660322,21.5533678 L213.660322,26.8436275 Z" id="Fill-16" fill="#F16534"></path>
        <g id="Group-20" transform="translate(148.435976, 0.239659)">
          <mask id="mask-2" fill="white">
            <use xlink:href="#path-1"></use>
          </mask>
          <g id="Clip-19"></g>
          <path d="M12.1381076,0.13858213 C12.0858666,0.13858213 12.0360001,0.148187685 11.9853422,0.153790926 L8.21528026,0.153790926 L8.21528026,0.154591389 C3.88164834,0.154591389 0.368834008,3.70704602 0.368834008,8.08878028 L0.368834008,13.37904 L0.368834008,18.6692997 L0.368834008,21.3140294 L0.368834008,26.6042891 L0.368834008,31.8937483 L0.368834008,35.7063534 C0.36250176,35.7575831 0.353003389,35.8080122 0.353003389,35.8616432 C0.353003389,36.5916655 0.938736288,37.1840081 1.66061251,37.1840081 L4.29166137,37.1840081 C5.01432912,37.1840081 5.59927049,36.5916655 5.59927049,35.8616432 L5.59927049,35.8608428 L5.59927049,31.8937483 L5.59927049,26.6042891 L5.59927049,21.3140294 L5.59927049,21.3140294 L5.59927049,18.6692997 L5.59927049,18.6692997 L5.59927049,13.37904 L5.59927049,8.08878028 C5.59927049,6.62793537 6.77073629,5.44405065 8.21528026,5.44405065 L12.1381076,5.44405065 C12.8599838,5.44405065 13.4457167,4.85170806 13.4457167,4.12168583 L13.4457167,1.46094694 C13.4457167,0.730924722 12.8599838,0.13858213 12.1381076,0.13858213" id="Fill-18" fill="#F16534" mask="url(#mask-2)"></path>
        </g>
        <path d="M176.78994,10.9581198 C176.737699,10.9581198 176.687833,10.9677254 176.636383,10.9741291 L172.867113,10.9741291 L170.251103,10.9741291 L170.251103,5.68386935 L170.251103,1.71597444 C170.251103,0.985952222 169.666162,0.39360963 168.943494,0.39360963 L166.312445,0.39360963 C165.590569,0.39360963 165.004836,0.985952222 165.004836,1.71597444 C165.004836,1.76960546 165.014335,1.81923417 165.020667,1.87126426 L165.020667,5.68386935 L165.020667,10.9741291 L165.020667,16.2635883 L165.020667,18.908318 L165.020667,24.1985777 L165.020667,29.4888374 C165.020667,33.8705717 168.533481,37.4238268 172.867113,37.4238268 L176.78994,37.4238268 C177.511817,37.4238268 178.09755,36.8314842 178.09755,36.1006615 L178.09755,33.4407231 C178.09755,32.7099004 177.511817,32.1183582 176.78994,32.1183582 C176.737699,32.1183582 176.687833,32.1271633 176.637175,32.133567 L172.867113,32.133567 C171.422569,32.133567 170.251103,30.9496823 170.251103,29.4888374 L170.251103,24.1985777 L170.251103,18.908318 L170.251103,16.2635883 L172.867113,16.2635883 L176.78994,16.2635883 C177.511817,16.2635883 178.09755,15.6712457 178.09755,14.9412235 L178.09755,12.2804846 C178.09755,11.5504624 177.511817,10.9581198 176.78994,10.9581198" id="Fill-21" fill="#F16534"></path>
        <path d="M237.714869,28.7328802 C237.714869,30.1937251 236.544194,31.3776098 235.09965,31.3776098 L229.868422,31.3776098 C228.423879,31.3776098 227.253204,30.1937251 227.253204,28.7328802 L227.253204,23.4426205 L227.253204,18.1531612 C227.253204,16.6923163 228.423879,15.5076311 229.868422,15.5076311 L235.09965,15.5076311 C236.544194,15.5076311 237.714869,16.6923163 237.714869,18.1531612 L237.714869,23.4426205 L237.714869,28.7328802 Z M235.09965,10.2181719 L229.868422,10.2181719 C225.534791,10.2181719 222.021976,13.7706265 222.021976,18.1531612 L222.021976,23.4426205 L222.021976,28.7328802 C222.021976,33.1154149 225.534791,36.6678695 229.868422,36.6678695 L235.09965,36.6678695 C239.432491,36.6678695 242.946097,33.1154149 242.946097,28.7328802 L242.946097,23.4426205 L242.946097,18.1531612 C242.946097,13.7706265 239.432491,10.2181719 235.09965,10.2181719 L235.09965,10.2181719 Z" id="Fill-23" fill="#F16534"></path>
        <path d="M160.154394,10.9581198 C160.102153,10.9581198 160.052287,10.9677254 160.000837,10.9741291 L156.231567,10.9741291 L153.615557,10.9741291 L153.615557,16.2635883 L156.231567,16.2635883 L160.154394,16.2635883 C160.87627,16.2635883 161.462003,15.6712457 161.462003,14.9412235 L161.462003,12.2804846 C161.462003,11.5504624 160.87627,10.9581198 160.154394,10.9581198" id="Fill-25" fill="#F16534"></path>
        <path d="M194.313565,21.5380789 L189.082337,21.5380789 C187.637793,21.5380789 186.467119,20.3541942 186.467119,18.8933493 C186.467119,17.4325044 187.637793,16.2478192 189.082337,16.2478192 L194.313565,16.2478192 L198.236392,16.2478192 L198.236392,16.2478192 C198.95906,16.2478192 199.544793,15.6562771 199.544793,14.9254544 L199.544793,12.2647155 C199.544793,11.5346933 198.95906,10.9423507 198.236392,10.9423507 C198.184151,10.9423507 198.134285,10.9519562 198.083627,10.95836 L194.313565,10.95836 L189.082337,10.95836 C184.749496,10.95836 181.235891,14.5108146 181.235891,18.8933493 C181.235891,23.2750836 184.749496,26.8283387 189.082337,26.8283387 L194.313565,26.8283387 C195.758109,26.8283387 196.928783,28.0122234 196.928783,29.4730683 C196.928783,30.9339132 195.758109,32.1177979 194.313565,32.1177979 L189.082337,32.1177979 L185.159509,32.1177979 C184.436842,32.1177979 183.8519,32.7101405 183.8519,33.4401627 L183.8519,36.1009016 C183.8519,36.8317243 184.436842,37.4232664 185.159509,37.4232664 C185.21175,37.4232664 185.261617,37.4136609 185.312275,37.4080576 L189.082337,37.4080576 L194.313565,37.4080576 C198.647197,37.4080576 202.160011,33.855603 202.160011,29.4730683 L202.160011,29.4730683 C202.160011,25.0905336 198.647197,21.5380789 194.313565,21.5380789" id="Fill-27" fill="#F16534"></path>
        <path d="M214.952576,8.33892495 L217.567794,8.33892495 C218.290462,8.33892495 218.875403,7.74658236 218.875403,7.01656014 L218.875403,4.35582125 C218.875403,3.62579903 218.290462,3.03345644 217.567794,3.03345644 C217.515553,3.03345644 217.465687,3.04306199 217.415029,3.04866523 L215.105341,3.04866523 C215.054683,3.04306199 215.004817,3.03345644 214.952576,3.03345644 C214.2307,3.03345644 213.644967,3.62579903 213.644967,4.35582125 L213.644967,7.01656014 C213.644967,7.74658236 214.2307,8.33892495 214.952576,8.33892495" id="Fill-29" fill="#F16534"></path>
        <path d="M209.221734,32.117958 C209.169493,32.117958 209.119626,32.1275636 209.068177,32.1339673 L206.759281,32.1339673 C206.708623,32.1275636 206.658756,32.117958 206.606515,32.117958 C205.883848,32.117958 205.298906,32.7103006 205.298906,33.4403228 L205.298906,36.1010617 C205.298906,36.8310839 205.883848,37.4234265 206.606515,37.4234265 L209.221734,37.4234265 C209.94361,37.4234265 210.529343,36.8310839 210.529343,36.1010617 L210.529343,33.4403228 C210.529343,32.7103006 209.94361,32.117958 209.221734,32.117958" id="Fill-31" fill="#F16534"></path>
        <path d="M217.583466,11.3725775 L214.952418,11.3725775 C214.230541,11.3725775 213.644808,11.9649201 213.644808,12.6949424 C213.644808,12.7485734 213.654307,12.7990025 213.660639,12.8502322 L213.660639,16.6628373 L213.660639,21.9522965 L218.891076,21.9522965 L218.891076,16.6628373 L218.891076,12.6949424 C218.891076,11.9649201 218.305343,11.3725775 217.583466,11.3725775" id="Fill-33" fill="#F16534"></path>
      </g>
    </g>
  </g>
</svg>
